<?xml version="1.0" encoding="utf-8"?>
<!-- Generator: Adobe Illustrator 28.2.0, SVG Export Plug-In . SVG Version: 6.00 Build 0)  -->
<svg version="1.1" id="Layer_2_00000149381699480172839250000009185640291483567750_"
	 xmlns="http://www.w3.org/2000/svg" xmlns:xlink="http://www.w3.org/1999/xlink" x="0px" y="0px" viewBox="0 0 4282.9 3021.2"
	 style="enable-background:new 0 0 4282.9 3021.2;" xml:space="preserve">
<g id="Layer_1-2">
	<g id="l7LODRpQuim1jqI0Fkyum7a">
		<g>
			<path id="pRZRfOfcH" d="M723.3,2689.2c7.6-1.2,44.8-9.6,82.8-18.8c38-8.8,85.2-19.2,105.2-22.4c20.4-3.2,38-6.8,39.2-8.4
				c1.2-1.2,2.8-145.6,3.6-320.8l0.8-318.4l-17.2-18c-22.4-23.6-34.8-40-34.8-46.4c0-4,105.6-117.6,180-194c5.6-5.6,40.4-42.8,78-82
				c79.6-84.4,192.8-201.2,203.2-210c6.4-5.6,6.8-20,6-231.6l-1.2-226l-34-20.8c-18.8-11.2-34-22.4-34-24.8
				c0-5.2,113.6-134,244-276.8c38.4-42,52-57.2,86.4-96.8c18-20.4,35.6-40,39.2-43.6c10-10,69.6-75.6,88.4-97.6
				c9.2-10.8,40-45.2,68-76c75.2-82.8,171.6-189.2,226-250c26.4-29.6,59.2-65.6,73.2-80l24.8-26l8.4,10c4.8,5.6,14.8,17.2,22.8,26
				c8.4,8.8,36.4,40.4,62.8,70s49.2,54.4,50.8,55.2c2,1.2,46,50.8,91.2,102.4c5.6,6.8,15.6,17.6,22.4,24
				c14.8,14.8,115.2,124.8,175.6,192.4c24.4,27.2,71.6,79.6,105.6,116.8c34,36.8,85.2,93.2,114,124.8s76.8,84,106.4,116
				c65.6,71.2,92,102,92,107.2c0,2-17.2,18-38,35.2l-38,31.6v437.6l53.6,1.6l53.6,1.2l43.6,46c23.6,25.2,74.8,78.4,113.2,118
				s104.4,108,146,151.6c42,43.6,96.4,100,121.2,124.8c24.4,24.8,44.8,46.4,44.8,47.6s-11.6,14.8-26,30.4l-26,28.4l0.8,328.4
				l1.2,328l50,12.8c117.6,30.4,304.4,89.6,332.8,106c4,2.4,8.8,4,10.8,4c15.2,0,194,84.4,267.2,126.4
				c80.4,45.6,169.2,105.6,169.2,114c0,4.4-1.2,4.4-28-5.2l0,0c-82.8-28.8-432.4-123.2-546-147.2c-135.6-28.8-278.4-55.6-360-68
				c-13.2-1.6-54.4-8-92-13.6c-60.8-9.2-142-18.8-248-30.4c-36.8-4-81.6-7.6-214-16.8c-93.2-6.4-373.6-6.4-468,0.4
				c-101.2,7.2-221.6,20-298,32.4c-222.4,35.2-371.2,69.6-636,146c-127.2,36.4-260,70.8-300,77.6c-13.2,2-36.4,4.4-52,5.2
				c-22.4,0.8-28,0-29.2-4.8c-2-10,69.6-53.6,153.2-94c78.8-38,86-41.2,192-82c74.4-29.2,82.4-34,59.6-38.4
				c-18.4-3.2-206.4,0.8-279.6,6.4c-219.2,16.8-375.6,39.2-608,88c-102,21.2-320.4,80.8-446,122c-61.2,19.6-86.8,25.6-82.4,18.4
				s94.4-68,147.6-99.6c117.6-70,229.6-119.6,402.8-177.2l70-23.2 M2826.9,1774V974.4l-62.8-71.2c-34.4-39.2-76.4-86.4-93.2-105.2
				s-35.6-40.4-42-48.4c-6.8-8-33.6-38.4-60-67.6s-54.8-61.6-63.6-71.6c-8.4-10-26.4-30.4-40-44.8c-13.2-14.8-41.6-46-62.4-69.6
				c-20.8-24-64.8-73.2-97.6-109.6s-81.2-91.2-107.6-121.6c-46-52.8-48.4-54.8-54.8-48c-15.2,16-230.4,260-277.6,314.8
				c-17.2,20-40.4,46.4-52,58.4c-11.2,12.4-36.4,41.2-56.4,64c-19.6,22.8-40,46-44.8,50.8c-5.2,5.2-34.8,38.8-66,74.4
				c-31.6,35.6-78.8,89.2-105.2,118.8s-52.4,59.2-57.2,65.6l-9.2,12l0.4,799.2c0.4,439.6,2,799.2,4,799.2c1.6,0,57.6-3.6,124.4-7.6
				c66.8-4.4,159.6-9.2,205.6-10.8c55.2-1.6,85.2-4,86.8-7.2c1.6-2.4,3.2-89.2,3.2-192.8c0-147.6,1.2-196,6-222
				c19.6-112.4,85.6-202,174-236.8c54-21.2,103.2-18,160,10c65.2,32,114.4,94,144,181.6c18.8,55.2,18,43.6,19.2,292.8l0.8,172.8
				h43.2c48.4,0.4,153.2,5.6,242.8,12.4c119.6,9.2,132,10,135.2,8.4C2825.7,2574,2826.9,2213.6,2826.9,1774L2826.9,1774z"/>
			<path id="p13G87JpCF" d="M1998.1,1231.6c-4-1.2-8-8-9.6-16.4c-2.8-14.8,1.6-161.6,5.2-165.2c0.8-1.2,29.6-2.4,63.6-2.8
				c60.8-0.8,62-0.8,65.2,8c4.4,11.2,3.6,169.2-0.8,173.6C2118.1,1232.4,2009.3,1234.8,1998.1,1231.6z"/>
			<path id="p1GZNBvggO" d="M2186.9,1230.8l-10-3.2V1052h132l0.8,84c0.8,46.4-0.4,86.4-2.4,89.6c-2.8,4.4-16.4,6-57.2,6.8
				C2220.9,1233.2,2192.5,1232.4,2186.9,1230.8L2186.9,1230.8z"/>
			<path id="p1Ae1I4QRK" d="M1990.9,976.4c0-38.4,20.8-71.6,51.6-82c20.8-6.8,39.2-1.6,58.4,17.2c13.6,13.6,17.6,20.8,21.6,40.8
				c2.8,13.2,4.4,28.4,3.6,34l-1.2,9.6l-66.8,1.2l-67.2,0.8L1990.9,976.4L1990.9,976.4z"/>
			<path id="pJYQaM8Tu" d="M2175.7,970.8c2.4-32.8,14.4-57.2,34.4-69.6c10.8-6.4,18-7.6,38.8-6.4c21.6,1.2,27.6,3.2,38,13.2
				c16.4,15.6,24.8,39.6,23.2,66l-1.2,22l-67.6,1.2l-67.6,0.8L2175.7,970.8L2175.7,970.8z"/>
			<path id="pJuF3hB7k" d="M2118.5,664.8c-30.8-20.8-50.4-68-46.8-114.4c3.2-43.2,34.4-92.8,66.4-104.8c52-20,108,65.2,92.8,141.6
				c-2.4,13.6-7.6,30-10.8,36.8c-8,15.6-28.4,37.2-42,44.4C2161.3,677.2,2134.5,675.6,2118.5,664.8L2118.5,664.8z"/>
			<path id="p11L2mtW5c" d="M2148.9,2922c-3.2-5.2,10.4-24.4,26.8-36.8c28.4-22,100.4-52.4,133.6-56.8c6.4-1.2,25.2-4,41.6-6.4
				c43.2-7.2,146-3.6,154.4,4.8c6,6,5.6,6.8-4.8,12.4c-42.4,21.2-294,86.8-333.6,86.8C2158.5,2926,2150.1,2924,2148.9,2922z"/>
		</g>
	</g>
</g>
</svg>
